<mxfile host="app.diagrams.net" modified="2024-04-17T03:16:47.846Z" agent="Mozilla/5.0 (Windows NT 10.0; Win64; x64) AppleWebKit/537.36 (KHTML, like Gecko) Chrome/123.0.0.0 Safari/537.36 Edg/123.0.0.0" version="24.2.5" etag="CtR3C8T1N3_zCqSuQnRD" type="github">
  <diagram name="Page-1" id="HDGNAYKxVNOCbTHGkMbF">
    <mxGraphModel>
      <root>
        <mxCell id="0" />
        <mxCell id="1" parent="0" />
      </root>
    </mxGraphModel>
  </diagram>
</mxfile>
